<svg width="16" height="17" viewBox="0 0 16 17" fill="none" xmlns="http://www.w3.org/2000/svg">
<g clip-path="url(#clip0_139_28)">
<path d="M4.5 7.2334C4.5 6.70297 4.71071 6.19426 5.08579 5.81918C5.46086 5.44411 5.96957 5.2334 6.5 5.2334L7.5 7.2334L6.73 8.38777C7.03544 9.11761 7.61579 9.69796 8.34562 10.0034L9.5 9.2334L11.5 10.2334C11.5 10.7638 11.2893 11.2725 10.9142 11.6476C10.5391 12.0227 10.0304 12.2334 9.5 12.2334C8.17392 12.2334 6.90215 11.7066 5.96447 10.7689C5.02678 9.83125 4.5 8.55948 4.5 7.2334Z" stroke="white" stroke-linecap="round" stroke-linejoin="round"/>
<path d="M4.99554 13.9279C6.25588 14.6573 7.73847 14.9035 9.16691 14.6205C10.5953 14.3375 11.8721 13.5448 12.7592 12.39C13.6463 11.2351 14.0831 9.79713 13.9883 8.34403C13.8934 6.89093 13.2734 5.52192 12.2437 4.49223C11.214 3.46254 9.84497 2.84247 8.39187 2.74761C6.93876 2.65276 5.50076 3.08959 4.34595 3.97668C3.19114 4.86376 2.39835 6.14055 2.11539 7.56899C1.83243 8.99743 2.07862 10.48 2.80804 11.7404L2.02617 14.0747C1.99679 14.1628 1.99253 14.2574 2.01386 14.3478C2.03519 14.4381 2.08127 14.5208 2.14694 14.5865C2.2126 14.6521 2.29526 14.6982 2.38565 14.7195C2.47603 14.7409 2.57057 14.7366 2.65867 14.7072L4.99554 13.9279Z" stroke="white" stroke-linecap="round" stroke-linejoin="round"/>
</g>
<defs>
<clipPath id="clip0_139_28">
<rect width="16" height="16" fill="white" transform="translate(0 0.733398)"/>
</clipPath>
</defs>
</svg>
