<svg width="17" height="16" viewBox="0 0 17 16" fill="none" xmlns="http://www.w3.org/2000/svg">
<g clip-path="url(#clip0_100_1214)">
<path d="M11 6.375C12.0193 7.10871 13.2441 7.50237 14.5 7.5V5C13.5717 5 12.6815 4.63125 12.0251 3.97487C11.3687 3.3185 11 2.42826 11 1.5H8.5V9.75C8.49987 10.0631 8.41571 10.3705 8.25631 10.6401C8.09692 10.9096 7.86811 11.1314 7.59377 11.2824C7.31943 11.4334 7.0096 11.508 6.6966 11.4984C6.3836 11.4889 6.0789 11.3955 5.81427 11.2281C5.54965 11.0606 5.33481 10.8253 5.19215 10.5465C5.04949 10.2677 4.98424 9.95581 5.00321 9.64324C5.02219 9.33067 5.12468 9.02892 5.30001 8.76946C5.47533 8.50999 5.71707 8.30233 6 8.16813V5.5C4.01063 5.85438 2.5 7.65875 2.5 9.75C2.5 10.8772 2.94777 11.9582 3.7448 12.7552C4.54183 13.5522 5.62283 14 6.75 14C7.87717 14 8.95817 13.5522 9.7552 12.7552C10.5522 11.9582 11 10.8772 11 9.75V6.375Z" stroke="#2B411B" stroke-linecap="round" stroke-linejoin="round"/>
</g>
<defs>
<clipPath id="clip0_100_1214">
<rect width="16" height="16" fill="white" transform="translate(0.5)"/>
</clipPath>
</defs>
</svg>
