<svg width="16" height="17" viewBox="0 0 16 17" fill="none" xmlns="http://www.w3.org/2000/svg">
<g clip-path="url(#clip0_139_18)">
<path d="M10.2744 9.81713C10.3436 9.77106 10.4233 9.74298 10.5061 9.73545C10.5889 9.72792 10.6723 9.74117 10.7488 9.77401L13.6963 11.0946C13.7956 11.1371 13.8785 11.2106 13.9326 11.3041C13.9867 11.3976 14.009 11.5061 13.9963 11.6134C13.8991 12.339 13.5418 13.0047 12.9907 13.4867C12.4395 13.9686 11.7321 14.2339 11 14.2334C8.74566 14.2334 6.58365 13.3379 4.98959 11.7438C3.39553 10.1497 2.5 7.98772 2.5 5.73338C2.49944 5.00126 2.7648 4.29385 3.24673 3.74272C3.72865 3.19158 4.39435 2.83424 5.12 2.73713C5.22727 2.72439 5.33578 2.74673 5.4293 2.80081C5.52281 2.85489 5.5963 2.9378 5.63875 3.03713L6.95938 5.98713C6.99182 6.0629 7.00504 6.14552 6.99784 6.22763C6.99064 6.30973 6.96326 6.38879 6.91813 6.45776L5.5825 8.04588C5.53512 8.11737 5.50711 8.19993 5.50119 8.28549C5.49528 8.37105 5.51166 8.45668 5.54875 8.53401C6.06563 9.59213 7.15938 10.6728 8.22063 11.1846C8.29836 11.2216 8.38439 11.2376 8.47021 11.2311C8.55602 11.2246 8.63867 11.1959 8.71 11.1478L10.2744 9.81713Z" stroke="white" stroke-linecap="round" stroke-linejoin="round"/>
</g>
<defs>
<clipPath id="clip0_139_18">
<rect width="16" height="16" fill="white" transform="translate(0 0.733398)"/>
</clipPath>
</defs>
</svg>
