<svg width="16" height="17" viewBox="0 0 16 17" fill="none" xmlns="http://www.w3.org/2000/svg">
<g clip-path="url(#clip0_139_40)">
<path d="M10.5 7.1084C11.5193 7.84211 12.7441 8.23577 14 8.2334V5.7334C13.0717 5.7334 12.1815 5.36465 11.5251 4.70827C10.8687 4.05189 10.5 3.16166 10.5 2.2334H8V10.4834C7.99987 10.7965 7.91571 11.1039 7.75631 11.3735C7.59692 11.643 7.36811 11.8648 7.09377 12.0158C6.81943 12.1668 6.5096 12.2414 6.1966 12.2318C5.8836 12.2223 5.5789 12.1289 5.31427 11.9615C5.04965 11.794 4.83481 11.5587 4.69215 11.2799C4.54949 11.0011 4.48424 10.6892 4.50321 10.3766C4.52219 10.0641 4.62468 9.76232 4.80001 9.50285C4.97533 9.24339 5.21707 9.03573 5.5 8.90152V6.2334C3.51063 6.58777 2 8.39215 2 10.4834C2 11.6106 2.44777 12.6916 3.2448 13.4886C4.04183 14.2856 5.12283 14.7334 6.25 14.7334C7.37717 14.7334 8.45817 14.2856 9.2552 13.4886C10.0522 12.6916 10.5 11.6106 10.5 10.4834V7.1084Z" stroke="white" stroke-linecap="round" stroke-linejoin="round"/>
</g>
<defs>
<clipPath id="clip0_139_40">
<rect width="16" height="16" fill="white" transform="translate(0 0.733398)"/>
</clipPath>
</defs>
</svg>
