<svg width="17" height="16" viewBox="0 0 17 16" fill="none" xmlns="http://www.w3.org/2000/svg">
<g clip-path="url(#clip0_100_1198)">
<path d="M8.5 10.5C9.88071 10.5 11 9.38071 11 8C11 6.61929 9.88071 5.5 8.5 5.5C7.11929 5.5 6 6.61929 6 8C6 9.38071 7.11929 10.5 8.5 10.5Z" stroke="#2B411B" stroke-miterlimit="10"/>
<path d="M11.5 2H5.5C3.84315 2 2.5 3.34315 2.5 5V11C2.5 12.6569 3.84315 14 5.5 14H11.5C13.1569 14 14.5 12.6569 14.5 11V5C14.5 3.34315 13.1569 2 11.5 2Z" stroke="#2B411B" stroke-linecap="round" stroke-linejoin="round"/>
<path d="M11.75 5.5C12.1642 5.5 12.5 5.16421 12.5 4.75C12.5 4.33579 12.1642 4 11.75 4C11.3358 4 11 4.33579 11 4.75C11 5.16421 11.3358 5.5 11.75 5.5Z" fill="#2B411B"/>
</g>
<defs>
<clipPath id="clip0_100_1198">
<rect width="16" height="16" fill="white" transform="translate(0.5)"/>
</clipPath>
</defs>
</svg>
