<svg width="17" height="16" viewBox="0 0 17 16" fill="none" xmlns="http://www.w3.org/2000/svg">
<g clip-path="url(#clip0_100_1207)">
<path d="M8.5 10.5C9.88071 10.5 11 9.38071 11 8C11 6.61929 9.88071 5.5 8.5 5.5C7.11929 5.5 6 6.61929 6 8C6 9.38071 7.11929 10.5 8.5 10.5Z" stroke="#2B411B" stroke-linecap="round" stroke-linejoin="round"/>
<path d="M12 13C11.0494 13.6319 9.72688 14 8.5 14C7.31331 14 6.15328 13.6481 5.16658 12.9888C4.17989 12.3295 3.41085 11.3925 2.95673 10.2961C2.5026 9.19975 2.38378 7.99335 2.61529 6.82946C2.8468 5.66558 3.41825 4.59648 4.25736 3.75736C5.09648 2.91825 6.16558 2.3468 7.32946 2.11529C8.49335 1.88378 9.69975 2.0026 10.7961 2.45673C11.8925 2.91085 12.8295 3.67989 13.4888 4.66658C14.1481 5.65328 14.5 6.81331 14.5 8C14.5 9.38063 14 10.5 12.75 10.5C11.5 10.5 11 9.38063 11 8V5.5" stroke="#2B411B" stroke-linecap="round" stroke-linejoin="round"/>
</g>
<defs>
<clipPath id="clip0_100_1207">
<rect width="16" height="16" fill="white" transform="translate(0.5)"/>
</clipPath>
</defs>
</svg>
