<svg width="16" height="17" viewBox="0 0 16 17" fill="none" xmlns="http://www.w3.org/2000/svg">
<g clip-path="url(#clip0_139_34)">
<path d="M8 11.2334C9.38071 11.2334 10.5 10.1141 10.5 8.7334C10.5 7.35269 9.38071 6.2334 8 6.2334C6.61929 6.2334 5.5 7.35269 5.5 8.7334C5.5 10.1141 6.61929 11.2334 8 11.2334Z" stroke="white" stroke-miterlimit="10"/>
<path d="M11 2.7334H5C3.34315 2.7334 2 4.07654 2 5.7334V11.7334C2 13.3903 3.34315 14.7334 5 14.7334H11C12.6569 14.7334 14 13.3903 14 11.7334V5.7334C14 4.07654 12.6569 2.7334 11 2.7334Z" stroke="white" stroke-linecap="round" stroke-linejoin="round"/>
<path d="M11.25 6.2334C11.6642 6.2334 12 5.89761 12 5.4834C12 5.06918 11.6642 4.7334 11.25 4.7334C10.8358 4.7334 10.5 5.06918 10.5 5.4834C10.5 5.89761 10.8358 6.2334 11.25 6.2334Z" fill="white"/>
</g>
<defs>
<clipPath id="clip0_139_34">
<rect width="16" height="16" fill="white" transform="translate(0 0.733398)"/>
</clipPath>
</defs>
</svg>
