<svg width="16" height="17" viewBox="0 0 16 17" fill="none" xmlns="http://www.w3.org/2000/svg">
<g clip-path="url(#clip0_139_22)">
<path d="M8 11.2334C9.38071 11.2334 10.5 10.1141 10.5 8.7334C10.5 7.35269 9.38071 6.2334 8 6.2334C6.61929 6.2334 5.5 7.35269 5.5 8.7334C5.5 10.1141 6.61929 11.2334 8 11.2334Z" stroke="white" stroke-linecap="round" stroke-linejoin="round"/>
<path d="M11.5 13.7334C10.5494 14.3653 9.22688 14.7334 8 14.7334C6.81331 14.7334 5.65328 14.3815 4.66658 13.7222C3.67989 13.0629 2.91085 12.1259 2.45673 11.0295C2.0026 9.93315 1.88378 8.72675 2.11529 7.56286C2.3468 6.39897 2.91825 5.32988 3.75736 4.49076C4.59648 3.65165 5.66558 3.0802 6.82946 2.84869C7.99335 2.61718 9.19975 2.736 10.2961 3.19012C11.3925 3.64425 12.3295 4.41329 12.9888 5.39998C13.6481 6.38668 14 7.54671 14 8.7334C14 10.114 13.5 11.2334 12.25 11.2334C11 11.2334 10.5 10.114 10.5 8.7334V6.2334" stroke="white" stroke-linecap="round" stroke-linejoin="round"/>
</g>
<defs>
<clipPath id="clip0_139_22">
<rect width="16" height="16" fill="white" transform="translate(0 0.733398)"/>
</clipPath>
</defs>
</svg>
