<svg width="17" height="16" viewBox="0 0 17 16" fill="none" xmlns="http://www.w3.org/2000/svg">
<g clip-path="url(#clip0_100_1190)">
<path d="M10.7744 9.08374C10.8436 9.03766 10.9233 9.00958 11.0061 9.00205C11.0889 8.99452 11.1723 9.00778 11.2488 9.04061L14.1963 10.3612C14.2956 10.4037 14.3785 10.4772 14.4326 10.5707C14.4867 10.6642 14.509 10.7727 14.4963 10.88C14.3991 11.6056 14.0418 12.2713 13.4907 12.7533C12.9395 13.2352 12.2321 13.5005 11.5 13.5C9.24566 13.5 7.08365 12.6045 5.48959 11.0104C3.89553 9.41633 3 7.25433 3 4.99999C2.99944 4.26786 3.2648 3.56045 3.74673 3.00932C4.22865 2.45818 4.89435 2.10084 5.62 2.00374C5.72727 1.99099 5.83578 2.01333 5.9293 2.06741C6.02281 2.12149 6.0963 2.2044 6.13875 2.30374L7.45938 5.25374C7.49182 5.3295 7.50504 5.41212 7.49784 5.49423C7.49064 5.57634 7.46326 5.65539 7.41813 5.72436L6.0825 7.31249C6.03512 7.38398 6.00711 7.46653 6.00119 7.55209C5.99528 7.63765 6.01166 7.72328 6.04875 7.80061C6.56563 8.85874 7.65938 9.93936 8.72063 10.4512C8.79836 10.4882 8.88439 10.5042 8.97021 10.4977C9.05602 10.4912 9.13867 10.4625 9.21 10.4144L10.7744 9.08374Z" stroke="#2B411B" stroke-linecap="round" stroke-linejoin="round"/>
</g>
<defs>
<clipPath id="clip0_100_1190">
<rect width="16" height="16" fill="white" transform="translate(0.5)"/>
</clipPath>
</defs>
</svg>
